<?xml version="1.0" encoding="UTF-8" standalone="no"?>
<!-- Created with Inkscape (http://www.inkscape.org/) -->
<svg xmlns:rdf="http://www.w3.org/1999/02/22-rdf-syntax-ns#" xmlns="http://www.w3.org/2000/svg" xmlns:cc="http://web.resource.org/cc/" xmlns:xlink="http://www.w3.org/1999/xlink" xmlns:dc="http://purl.org/dc/elements/1.1/" xmlns:svg="http://www.w3.org/2000/svg" xmlns:inkscape="http://www.inkscape.org/namespaces/inkscape" xmlns:sodipodi="http://sodipodi.sourceforge.net/DTD/sodipodi-0.dtd" xmlns:ns1="http://sozi.baierouge.fr" id="svg2" viewBox="0 0 191.76 153.73" version="1.0" inkscape:version="0.91 r13725">
  <defs id="defs5">
    <linearGradient id="linearGradient3195" y2="94.459" gradientUnits="userSpaceOnUse" x2="115.06" y1="81.245" x1="148.57">
      <stop id="stop3191" style="stop-color:#5b4c44" offset="0"/>
      <stop id="stop3193" style="stop-color:#5b4c44;stop-opacity:0" offset="1"/>
    </linearGradient>
    <linearGradient id="linearGradient3203" y2="34.192" gradientUnits="userSpaceOnUse" x2="111.51" y1="28.068" x1="136.33">
      <stop id="stop3199" style="stop-color:#5b4c44" offset="0"/>
      <stop id="stop3201" style="stop-color:#5b4c44;stop-opacity:0" offset="1"/>
    </linearGradient>
    <linearGradient id="linearGradient3213" y2="77.993" gradientUnits="userSpaceOnUse" x2="57.044" y1="80.732" x1="84.438">
      <stop id="stop3209" style="stop-color:#ac9d93" offset="0"/>
      <stop id="stop3211" style="stop-color:#ac9d93;stop-opacity:0" offset="1"/>
    </linearGradient>
    <linearGradient id="linearGradient3223" y2="34.001" gradientUnits="userSpaceOnUse" x2="85.727" y1="34.001" x1="66.39">
      <stop id="stop3219" style="stop-color:#00ff00" offset="0"/>
      <stop id="stop3221" style="stop-color:#00ff00;stop-opacity:0" offset="1"/>
    </linearGradient>
    <linearGradient id="linearGradient3244" y2="28.361" gradientUnits="userSpaceOnUse" x2="90.562" y1="35.451" x1="11.924">
      <stop id="stop3240" style="stop-color:#e3dbdb" offset="0"/>
      <stop id="stop3242" style="stop-color:#ac9d93" offset="1"/>
    </linearGradient>
  </defs>
  <g id="layer3" transform="translate(9.6685 4.512)">
    <rect id="rect3246" style="fill-rule:evenodd;fill:#000000" height="153.73" width="191.76" y="-4.512" x="-9.6685"/>
    <path id="path3234" style="fill-rule:evenodd;fill:#e3dbdb" d="m116.34-2.5783h-122.79l0.6489 110.87 108.93-16.117 24.82-61.556-11.61-33.195z"/>
    <path id="path3236" style="fill-rule:evenodd;fill:url(#linearGradient3244)" d="m116.34-2.5783h-122.79l0.6489 110.87 108.93-16.117 24.82-61.556-11.61-33.195z"/>
    <path id="path3226" style="fill-rule:evenodd;fill:#483737" d="m-5.4788 107.64l55.755-17.078 88.304-23.849 38.68 6.768s4.19 16.758-4.52 21.27c-8.7 4.512-25.46 9.669-33.51 13.539-8.06 3.86-14.83 9.98-17.73 11.28-9.35 4.19-19.01-1.94-17.08-2.9 1.93-0.97-0.64 9.99-2.9 11.92-2.257 1.93-36.419 16.44-36.419 16.44s-5.479-5.48-15.792-8.38-25.138-5.48-28.683-3.55c-3.545 1.94-25.782-25.14-26.105-25.46z"/>
    <path id="path3228" style="fill-rule:evenodd;fill:#c8b7b7" d="m42.541 99.908l5.479-1.289s19.66 9.021 22.238 9.341c2.578 0.33 13.858 5.81 16.114 5.81s12.891 2.9 14.178 4.51c1.29 1.61 2.58 5.15 0.97 6.77-1.612 1.61-28.039 12.24-28.039 12.24l-58.011-23.2s9.668-5.48 12.891-7.74c3.223-2.25 13.536-6.442 14.18-6.442z"/>
    <path id="path3230" style="fill-rule:evenodd;fill:#241c1c" d="m116.34-2.5783l-2.9 80.571 64.46 13.536-0.97-93.463-60.59-0.6443z"/>
    <path id="path3232" style="fill-rule:evenodd;fill:#e3dbdb" d="m-2.5783 108.29s2.9006-3.23 5.1566-3.55 13.214-0.64 13.214-0.64 1.611 3.54-0.967 6.12-5.4788 5.16-8.057 5.16c-2.5783 0-5.1566 0-6.4457-1.29-1.2892-1.29-3.2229-5.48-2.9006-5.8z"/>
  </g>
  <g id="layer2" transform="translate(19.337 .93739)">
    <path id="path2388" style="fill-rule:evenodd;fill:#ac9d93" d="m62.523 21.3c7.842-4.297 15.684-8.594 23.527-12.891 1.006 8.938 1.647 17.95 1.032 26.94-0.524 9.613-1.036 19.236-1.999 28.815-2.155 0.492-4.506-0.47-6.694-0.759-5.215-1.108-10.386-2.409-15.544-3.753-0.107-12.784-0.215-25.568-0.322-38.352z"/>
    <path id="path2411" style="fill-rule:evenodd;fill:#917c6f" d="m87.017 7.7643l3.867-1.2892 19.986-2.9005 4.51 6.1234 25.46 2.578 0.32 9.669-0.97 15.792s-6.44 2.578-8.7 3.545c-2.25 0.967-12.57 9.346-14.18 11.602s-2.9 6.123-2.9 6.123l1.61 6.124 5.8 1.289 4.19-0.645 1.29-1.289 23.53 4.512 0.64 2.578-0.96 19.982-51.247 22.882-2.9-25.783-5.157-3.222 2.901-18.048-8.057-3.868 1.289-53.176-0.322-2.5787z"/>
    <path id="path2395" style="fill-rule:evenodd;fill:#ac9d93" d="m44.797 82.534l0.967 16.759s24.816 9.027 28.039 9.987c3.223 0.97 17.726 6.77 21.593 6.13 3.867-0.65 4.19-1.29 4.19-1.29l-2.579-25.785-38.029-4.19"/>
    <path id="path2397" style="fill-rule:evenodd;fill:#ac9d93" d="m98.619 66.42c-0.322 1.289-0.645 2.256-0.645 2.256l0.967 0.322s-3.223 0.967-3.223 2.901v2.9s0-0.322-0.967 2.256c-0.966 2.579-0.644 2.256-0.644 2.256l-0.645 6.446-42.219-6.446 11.28-4.189 24.816-7.735 1.934-1.934 9.346 0.967z"/>
    <path id="path2399" style="fill-rule:evenodd;fill:#ac9d93" d="m32.873 103.8s-12.891 3.87-16.437 6.45c-3.545 2.58-11.602 9.99-11.602 9.99 0.0003 0-1.9334-2.25-0.6443 0.65s45.119 21.59 45.119 21.59-4.189-0.65-3.867-4.51c0.322-3.87-1.611-6.45 2.901-7.42 4.512-0.96 20.626-10.63 20.626-10.63l4.834-2.58s-9.024-1.29-14.825-4.19-4.512-2.9-12.247-4.51-12.569-5.16-13.858-4.84z"/>
    <path id="path2401" style="fill-rule:evenodd;fill:#ac9d93" d="m2.256 107.99s1.6114 5.81-3.8674 7.09c-5.4788 1.29-8.0571 0.97-8.0571 0.97l3.2228 2.58 10.958-1.61 7.4117-2.26 1.612-5.15-11.28-1.62z"/>
    <path id="path2403" style="fill-rule:evenodd;fill:#008000" d="m67.357 23.556s-3.545 17.403-2.578 21.915 2.901 8.058 2.901 8.058l12.569 2.9 1.611-36.418h-3.867c-1.612 0-11.28 3.867-10.636 3.545z"/>
    <path id="path2405" style="fill-rule:evenodd;fill:#ffff00" d="m64.779 90.591v3.223l4.19-0.322v-2.579l-4.19-0.322z"/>
    <path id="path2407" style="fill-rule:evenodd;fill:#ac9d93" d="m89.917 122.17s-33.195 15.15-34.162 17.09c-0.967 1.93-1.289 4.83-1.289 4.83l4.19-0.32-13.536-4.19 0.967-6.77 9.668-7.09 9.346 2.58h6.768l2.256-5.48h3.223l9.024 0.97 3.545-1.62z"/>
    <path id="path2409" style="fill-rule:evenodd;fill:#ffff00" d="m70.902 119.92l-1.611 3.22 3.545 1.61 1.934-3.86-3.868-0.97z"/>
    <path id="path2413" style="fill-rule:evenodd;fill:#917c6f" d="m90.239 123.14l-23.204 10.96-12.569 8.38 0.322 2.58 35.129-14.83 2.578-3.87-2.256-3.22z"/>
    <path id="path2415" style="fill-rule:evenodd;fill:url(#linearGradient3203)" d="m101.84 4.8637l9.35-1.2891 3.54 6.4454 26.11 2.579c0.19 2.481 0.21 5.051-1.29 8.379v17.081s-8.38 3.223-9.99 4.19c-1.61 0.966-13.54 14.502-13.54 14.502l-1.93 4.835 1.93 3.545 9.35-0.645s19.98 2.578 21.27 2.901c1.29 0.322 5.48 1.611 5.48 1.611l-1.29 3.868-16.12 2.256-11.28-1.29s-0.32-2.9-1.93-4.189-7.41-0.967-7.41-0.967l-1.94-1.612-4.51-1.933s2.9-0.645 3.23-2.901c0.32-2.256-0.33-45.764-0.33-45.764s1.29-9.3463-0.32-10.313c-1.61-0.967-8.38-0.3224-8.38-1.2893z"/>
    <path id="path3187" style="fill-rule:evenodd;fill:url(#linearGradient3195)" d="m105.06 87.368l46.74-17.081-0.97 22.56-41.9 18.373-3.87-23.852z"/>
    <path id="path3205" style="fill-rule:evenodd;fill:url(#linearGradient3213)" d="m59.945 75.414l-6.124 3.545 52.859 7.091-0.33-2.579-46.405-8.057z" transform="translate(-9.6685 3.5746)"/>
    <path id="path3215" style="fill-rule:evenodd;fill:url(#linearGradient3223)" d="m77.993 20.626s-3.223 6.768-3.223 10.636c0 3.867 1.289 14.502 1.611 15.791 0.322 1.29 7.735 3.868 7.735 3.868l5.157-0.645 1.611-33.195-7.09 0.322-5.801 3.223z" transform="translate(-9.6685 3.5746)"/>
  </g>
  <g id="layer1" transform="translate(19.337 .93739)">
    <path id="path2386" style="fill:#000000" d="m48.057 142.6c-3.826-1.76-9.052-3.8-11.611-4.53-2.56-0.73-5.401-1.9-6.314-2.6-0.912-0.7-3.898-1.91-6.635-2.67-2.737-0.77-6.128-2.13-7.535-3.03s-3.731-1.73-5.165-1.84c-2.9912-0.23-8.3111-4.47-8.3111-6.61 0-0.79 0.6221-2.07 1.3823-2.84 1.1126-1.13 0.7748-1.17-1.7308-0.22-7.3363 2.77-14.027 0.17-14.027-5.44 0-2.65 0.644-3.38 3.9011-4.46 4.0807-1.34 16.905-1.66 20.552-0.5 1.166 0.37 1.789 1.21 1.386 1.86-0.495 0.8 0.263 0.94 2.324 0.42 7.928-1.99 9.247-1.92 15.084 0.77 3.28 1.51 10.273 4.35 15.539 6.3 6.694 2.48 9.743 4.19 10.131 5.67 0.481 1.84 0.93 1.95 3.331 0.86 2.62-1.19 3.005-4.31 0.532-4.31-1.463 0-14.57-5.13-21.358-8.36-3.041-1.45-7.192-2.77-9.225-2.94l-3.695-0.31 2.625-3.04c1.809-2.1 3.687-3.04 6.046-3.04 3.823 0 17.154 5.56 15.106 6.3-0.719 0.26-2.809-0.31-4.645-1.26-4.257-2.2-6.962-2.22-4.065-0.03 1.18 0.89 3.171 1.66 4.423 1.71 1.253 0.05 1.644 0.34 0.871 0.65-0.773 0.32-2.877 0.06-4.675-0.57-1.806-0.63-3.536-0.71-3.863-0.18s0.533 1.28 1.911 1.67c1.377 0.39 3.997 1.37 5.821 2.18 13.956 6.21 17.259 7.24 19.473 6.05 2.571-1.37 5.721-1.33 4.856 0.07-0.406 0.66 0.91 1.1 3.253 1.1 3.198 0 3.935 0.42 3.935 2.21 0 1.22-0.439 2.22-0.977 2.22-0.537 0-1.237 0.99-1.555 2.21-0.672 2.57 1.595 3.01 3.524 0.69 0.694-0.84 3.558-2.16 6.363-2.95 4.221-1.18 4.806-1.65 3.388-2.68-0.943-0.69-5.114-1.92-9.27-2.73-4.155-0.81-8.053-1.86-8.661-2.33-1.412-1.1-12.717-5.41-12.717-4.85 0 0.24 2.115 1.51 4.7 2.84 2.587 1.32 4.05 2.63 3.253 2.9-0.795 0.27-2.327-0.31-3.404-1.28-1.077-0.98-2.695-1.78-3.595-1.78-0.901 0-2.603-0.73-3.784-1.62s-3.142-1.65-4.358-1.69c-2.084-0.07-2.096-0.14-0.207-1.24 2.483-1.44 10.737 0.38 19.527 4.31 3.363 1.5 9.568 3.54 13.788 4.54 7.17 1.69 7.735 2.04 8.605 5.4 1.289 4.98-0.468 7.66-6.067 9.25-2.575 0.74-5.429 1.93-6.341 2.64-0.912 0.72-4.147 1.95-7.188 2.74-3.041 0.8-6.315 2.12-7.275 2.94s-2.517 1.49-3.459 1.49-2.332 0.74-3.089 1.65c-1.818 2.19-2.647 2.06-10.828-1.71zm12.704-1.31c1.239-0.95 9.902-4.32 21.347-8.3 6.013-2.09 8.847-4.36 8.847-7.09 0-2.83-1.901-2.57-8.895 1.24-3.319 1.81-6.971 3.63-8.116 4.04-6.62 2.38-17.872 8.97-18.181 10.64-0.268 1.45 0.144 1.75 1.659 1.21 1.109-0.39 2.611-1.18 3.339-1.74zm-6.034-0.64c0.376-1.44-0.685-2.69-3.775-4.47-2.364-1.36-4.084-2.82-3.822-3.25s-1.341-0.82-3.561-0.87c-2.39-0.05-6.293-1.43-9.566-3.39-3.041-1.82-8.011-3.94-11.044-4.7-6.703-1.68-9.088-3.32-6.979-4.79 0.938-0.65 0.545-0.75-1.132-0.27-1.652 0.46-3.261 0.1-4.509-1.03-1.7873-1.62-2.1349-1.56-4.3811 0.84-2.0808 2.21-2.2069 2.79-0.857 3.91 0.8705 0.72 2.6375 1.51 3.9265 1.76 1.2886 0.25 3.1176 1.23 4.0626 2.17 0.945 0.95 2.649 1.72 3.786 1.72s2.355 0.46 2.706 1.03 3.436 1.85 6.855 2.84c3.419 1 7.267 2.45 8.55 3.24 1.283 0.78 5.194 2.28 8.69 3.34s6.636 2.37 6.977 2.92c1.057 1.71 3.523 1.11 4.073-1zm6.369-5.18c1.719-2.07 0.304-2.07-3.317 0-2.604 1.49-2.628 1.58-0.412 1.62 1.294 0.02 2.972-0.71 3.729-1.62zm-0.772-2.73c4.703-1.51 4.885-3.39 0.444-4.58-2.118-0.56-3.703-0.19-5.631 1.33-3.204 2.52-4.813 2.77-2.887 0.45 0.757-0.91 0.971-1.66 0.477-1.66-0.495 0-0.031-0.64 1.03-1.41 1.153-0.84 1.652-2.14 1.238-3.22-0.738-1.92-10.111-6.42-13.456-6.45-1.104-0.01-4.744-1.54-8.089-3.39-7.093-3.94-13.65-4.43-18.749-1.42-1.853 1.1-3.368 2.33-3.368 2.75 0 0.97 6.306 3.19 9.058 3.19 1.977 0 13.751 4.93 19.626 8.22 2.225 1.24 3.095 1.26 4.976 0.07 1.254-0.79 4.022-1.76 6.151-2.14 3.455-0.63 3.248-0.4-1.936 2.09-3.193 1.54-5.805 3.3-5.805 3.91 0 1.57 1.43 1.39 3.935-0.51 2.827-2.13 5.676-2.29 3.951-0.21-0.678 0.82-0.905 1.82-0.504 2.22 0.4 0.4 0.022 0.73-0.839 0.74-0.862 0.01-0.323 0.67 1.198 1.48 1.52 0.8 3.262 1.11 3.87 0.68s2.998-1.39 5.31-2.14zm-19.133-3.35c0-0.61-0.527-1.11-1.171-1.11s-0.864 0.5-0.488 1.11c0.376 0.6 0.903 1.1 1.171 1.1 0.269 0 0.488-0.5 0.488-1.1zm-6.082-3.32c-1.825-1.21-3.823-2.2-4.44-2.21-0.617 0-2.979-1-5.249-2.22-4.889-2.62-8.389-3.01-6.495-0.73 0.676 0.82 3.933 2.09 7.238 2.83 3.306 0.74 6.607 2.06 7.337 2.94s2.137 1.6 3.126 1.59c1.159 0 0.618-0.79-1.517-2.2zm35.94 0.55c1.182-1.42 0.77-1.67-2.906-1.77-2.954-0.07-3.596-0.33-2.07-0.83 1.216-0.39 2.378-1.71 2.582-2.93 0.351-2.09 0.24-2.07-1.978 0.28-1.292 1.37-3.076 2.49-3.965 2.49-2.647 0-1.837 1.69 1.426 2.98 4.292 1.7 5.347 1.67 6.911-0.22zm2.212-4.98c0-0.6-0.468-1.1-1.041-1.1-0.572 0-1.348 0.5-1.724 1.1-0.376 0.61 0.093 1.11 1.041 1.11s1.724-0.5 1.724-1.11zm-73.089-4.28c1.7759-0.5 3.1373-2.12 4.0891-4.86l1.4268-4.13h-4.2273c-10.342 0-13.817 2.42-10.586 7.35 1.7291 2.64 4.188 3.07 9.2974 1.64zm10.349-4.26c0.467-0.25 0.561-0.92 0.21-1.49-0.7514-1.21-4.9275 0.73-4.9275 2.3 0 0.91 2.2621 0.52 4.7175-0.81zm27.331-8.62c-0.889-1.07-1.78-1.1-3.876-0.13-3.046 1.41-3.603 2.92-1.079 2.92 0.912 0 1.659-0.5 1.659-1.11s0.551-1.1 1.224-1.1c0.681 0 0.915 0.8 0.528 1.81-0.585 1.53-0.424 1.59 1.001 0.41 1.214-1.01 1.369-1.81 0.543-2.8zm56.973 11.5c-8.204-1.18-11.682-2.09-16.588-4.33-2.433-1.12-6.295-2.36-8.582-2.78-2.288-0.41-4.412-1.15-4.72-1.65s-3.335-1.48-6.727-2.19c-3.392-0.7-7.862-1.99-9.933-2.85-3.52-1.47-3.77-1.92-3.815-6.814-0.026-2.881-0.449-7.309-0.939-9.841-0.788-4.069-0.623-4.722 1.43-5.64 4.719-2.11 10.275-3.889 18.357-5.877 16.021-3.942 23.223-6.275 23.223-7.522 0-0.404-2.861-1.329-6.358-2.056-5.392-1.12-11.166-2.518-17.744-4.295-1.129-0.305-1.317-4.518-0.889-19.954 0.475-17.164 0.782-19.713 2.495-20.751 1.074-0.651 4.211-2.44 6.972-3.976 2.76-1.536 7.15-4.225 9.755-5.9765 4.686-3.1504 11.461-4.9192 21.408-5.5887 2.82-0.19 6.07-0.6431 7.21-1.0068 1.58-0.5007 2.59 0.2773 4.17 3.2047l2.08 3.866h11.78c14.73 0 16.28 0.8173 14.44 7.6473-0.71 2.621-1.2 6.824-1.11 9.341 0.47 11.949 0.24 12.87-3.2 12.87-1.75 0-3.81 0.746-4.56 1.659-0.76 0.912-2.04 1.659-2.85 1.659s-1.86 0.647-2.35 1.437c-0.49 0.791-2.55 2.602-4.59 4.024-4.99 3.484-7.64 8.092-7.04 12.214 0.49 3.326 0.51 3.336 7.83 3.334 9.12-0.001 25.67 2.174 27.52 3.619 0.92 0.715 1.38 4.281 1.37 10.618-0.02 12.779-0.5 14.169-5.36 15.656-2.21 0.678-8.51 3.384-13.98 6.009-5.47 2.63-10.7 5.08-11.61 5.45-0.91 0.36-2.41 1.14-3.32 1.73-3.12 2.02-15.86 6.58-16.78 6.01-0.5-0.31-0.87-4.14-0.81-8.52 0.13-8.949-0.97-16.241-2.437-16.241-1.117 0-1.31 15.021-0.273 21.291 0.403 2.44 1.309 4.14 2.2 4.14 1.6 0 2.1 1.81 0.68 2.48-0.45 0.21-3.314 0.03-6.355-0.4zm1.338-13.96l-0.471-11.892-4.304-0.673-4.304-0.672 4.424-0.284c4.242-0.273 4.105-0.366-3.318-2.279-4.258-1.097-9.98-2.047-12.717-2.111s-6.967-0.641-9.4-1.282c-8.041-2.12-16.236-3.06-18.641-2.139-2.317 0.887-2.308 0.922 0.394 1.538 3.982 0.909 16.606 2.938 28.752 4.622l10.506 1.457-12.164-0.601c-6.691-0.33-12.727-1.051-13.413-1.601-0.687-0.55-4.668-1.114-8.847-1.253l-7.599-0.252 0.22 3.318c0.12 1.825 0.521 5.415 0.891 7.979 0.626 4.335 0.956 4.715 4.757 5.385 4.398 0.77 10.272 2.67 26.755 8.63 5.778 2.09 12.406 3.85 14.728 3.9l4.221 0.09-0.47-11.88zm-26.763-7.919c-4.056-0.482-5.617-1.169-5.887-2.591-0.313-1.651 0.517-1.935 5.658-1.935 9.108 0 12.937 1.022 12.937 3.455 0 2.242-1.666 2.382-12.708 1.071zm-1.668-2.315c0-0.608-0.498-1.106-1.106-1.106s-1.106 0.498-1.106 1.106c0 0.609 0.498 1.106 1.106 1.106s1.106-0.497 1.106-1.106zm48.788 14.824c0.84-0.65 3.52-2.03 5.95-3.08 2.43-1.04 5.17-2.37 6.08-2.95 0.92-0.583 2.91-1.558 4.43-2.169s4.08-1.854 5.7-2.762c1.61-0.908 3.86-1.651 5-1.651 2.32 0 6.99-2.93 6.99-4.383 0-1.155-4.19-0.164-7.19 1.7-1.21 0.757-5.44 2.189-9.39 3.181-3.94 0.993-7.65 2.282-8.24 2.865-0.58 0.583-1.91 1.061-2.96 1.061-1.04 0-3.31 0.697-5.03 1.549-5.86 2.899-11.49 5.089-13.12 5.089-1.05 0-1.62 1.12-1.62 3.19v3.2l5.94-1.83c3.26-1.02 6.62-2.37 7.46-3.01zm-10.34-3.67c3.12-1.65 19.14-7.534 25.56-9.395 3.27-0.948 6.5-2.152 7.19-2.676 0.68-0.523 3.6-1.591 6.49-2.372 4.8-1.299 5.26-1.719 5.36-4.872 0.05-1.898 0.26-5.807 0.46-8.688l0.35-5.237-5.29-1.57c-5.03-1.496-21.78-3.494-19.35-2.309 0.63 0.311 0.96 2.25 0.72 4.309-0.41 3.474-0.78 3.796-5.23 4.462-2.63 0.395-7.68 1.741-11.22 2.991-6.65 2.347-18.36 2.862-31.047 1.364-5.19-0.613-5.806-0.966-5.806-3.323 0-1.451-0.225-2.637-0.499-2.637-2.365 0-13.078 2.699-16.491 4.155l-4.272 1.823 13.119 2.017c7.216 1.11 16.105 2.441 19.754 2.958 3.65 0.517 8.158 1.572 10.019 2.345 3.038 1.261 4.363 1.033 13.023-2.234 5.3-2.001 9.89-3.385 10.2-3.076 0.31 0.308-1.08 1.184-3.07 1.945-2 0.762-5.2 2.073-7.12 2.914-1.91 0.841-4.34 1.529-5.4 1.529-1.64 0-1.82 0.728-1.21 5.131 0.38 2.822 0.7 6.554 0.7 8.296 0 3.47 0.23 3.64 3.06 2.15zm17.95-23.466c2.13-0.666 6.7-2.139 10.17-3.273 3.46-1.134 8.44-2.321 11.06-2.637l4.76-0.575-5.53 1.452c-3.04 0.799-6.53 1.977-7.74 2.618-1.98 1.044-4.64 1.655-13.83 3.17-1.52 0.251-1.02-0.088 1.11-0.755zm-15.59-2.558c1.7-0.881 6.39-2.208 10.42-2.951 6.47-1.193 7.3-1.629 7.13-3.748-0.18-2.153-0.54-2.287-3.57-1.324-1.85 0.59-4.34 1.571-5.53 2.181-5.8 2.974-15.56 4.18-27.892 3.443-10.99-0.658-12.52-0.535-12.52 0.999 0 2.17 2.776 2.621 17.473 2.834 8.049 0.117 12.299-0.303 14.489-1.434zm3.15-5.797c8.94-2.951 11.5-4.767 6.72-4.767-1.32 0-3.22 0.741-4.22 1.647-1.73 1.567-4.83 1.766-26.36 1.694-2.023-0.006-4.76 0.607-6.082 1.364-2.152 1.232-1.649 1.444 4.783 2.015 13.759 1.222 16.089 1.041 25.159-1.953zm-4.99-3.128c5.56-0.706 8.63-2.82 8.51-5.865-0.06-1.437-0.34-1.317-1.23 0.532-1.33 2.755-4.79 3.595-15.837 3.853-7.09 0.165-7.476 0.291-4.587 1.494 1.734 0.723 4.223 1.165 5.529 0.983 1.305-0.183 4.735-0.631 7.615-0.997zm-12.026-15.739c0.402-7.147 1.049-20.586 1.437-29.864l0.707-16.87-3.761 0.7324c-2.069 0.4029-4.127 1.2763-4.574 1.941-0.446 0.6646-0.82 7.4756-0.829 15.135-0.009 7.659-0.339 19.925-0.734 27.257-0.671 12.492-0.584 13.365 1.383 13.869 5.668 1.451 5.596 1.588 6.371-12.2zm13.696 12.297c2.48-0.665 2.49-0.75 2.68-25.696 0.11-13.767 0.39-22.936 0.62-20.377l0.42 4.652 7.4-0.432c4.07-0.237 5.91-0.186 4.09 0.115-6.74 1.11-11.61 2.742-11.61 3.891 0 0.696 0.79 0.849 1.93 0.37 1.07-0.445 5.9-1.067 10.75-1.38 9.06-0.585 18.62-3.316 12.75-3.642l-2.76-0.153 2.76-0.763c1.98-0.546 2.87-1.654 3.13-3.895 0.2-1.723-0.05-3.548-0.56-4.055-0.51-0.508-6.28-1.001-12.83-1.097-10.93-0.16-12.02-0.369-13.2-2.5368-1.28-2.3532-1.29-2.3517-2.07 0.4025-0.69 2.4243-0.8 2.2703-0.9-1.2464l-0.11-4.0112-5.25 0.5043c-2.89 0.2774-5.802 0.6693-6.47 0.8709-1.086 0.328-2.531 24.729-3.062 51.711l-0.147 7.465 4.979-0.015c2.73-0.009 6.09-0.316 7.46-0.682zm-22.562-13.853c0.986-18.326 0.912-41.849-0.131-41.849-0.47-0.0001-3.366 1.653-6.434 3.674-3.069 2.021-7.91 4.803-10.757 6.181l-5.178 2.507v6.446c0 3.545-0.328 7.357-0.729 8.471-0.401 1.115-0.316 1.651 0.19 1.192 0.505-0.46 1.469-3.879 2.142-7.599l1.223-6.764 6.604-2.474c3.633-1.362 7.391-2.815 8.351-3.23 1.553-0.671 1.702 0.928 1.346 14.497-0.549 20.977-1.104 24.884-3.444 24.241-1.023-0.28-4.18-0.825-7.015-1.209-4.652-0.631-5.322-1.1-6.855-4.793l-1.699-4.094-0.057 6.803-0.057 6.803 6.561 0.762c3.608 0.418 7.465 1.447 8.57 2.285 1.106 0.838 3.053 1.539 4.328 1.559 2.19 0.033 2.359-0.711 3.041-13.409zm35.212-2.68c2.61-2.688 5.31-4.887 6-4.887s1.81-0.665 2.49-1.477c0.67-0.812 3.22-2.136 5.66-2.942 2.54-0.837 4.44-2.17 4.44-3.11 0-1.392-1.61-1.532-10.46-0.909-5.76 0.404-11.98 1.038-13.83 1.407l-3.35 0.672 0.04 12.303 0.04 12.302 2.12-4.236c1.16-2.33 4.25-6.436 6.85-9.123zm-40.562-8.546c0.992-18.534 0.887-19.122-3.347-18.623-1.813 0.214-4.13 0.834-5.148 1.377-2.751 1.466-5.138 7.001-4.563 10.576 0.387 2.408 0.237 2.755-0.644 1.487-0.825-1.188-0.997 0.369-0.609 5.529 0.844 11.24 1.094 11.81 5.725 13.039 8.168 2.17 7.715 2.877 8.586-13.385zm46.442-5.827c8.74-0.859 12.71-2.058 12.71-3.845 0-0.829-2.4-1.033-7.46-0.636l-7.47 0.587 6.64-1.13c7.95-1.354 11.44-3.742 3.87-2.647-2.74 0.396-6.22 0.868-7.74 1.049-11.71 1.393-15.48 2.116-15.48 2.965 0 0.538 1.36 1.017 3.04 1.065l3.04 0.088-3.04 1.11c-4.27 1.557-3.87 3.527 0.55 2.769 1.98-0.339 7.08-0.957 11.34-1.375zm-7.49-3.404c0.75-0.303 2.24-0.322 3.32-0.041 1.07 0.28 0.46 0.528-1.36 0.55-1.83 0.023-2.71-0.206-1.96-0.509z"/>
  </g>
  <metadata>
    <rdf:RDF>
      <cc:Work>
        <dc:format>image/svg+xml</dc:format>
        <dc:type rdf:resource="http://purl.org/dc/dcmitype/StillImage"/>
        <cc:license rdf:resource="http://creativecommons.org/licenses/publicdomain/"/>
        <dc:publisher>
          <cc:Agent rdf:about="http://openclipart.org/">
            <dc:title>Openclipart</dc:title>
          </cc:Agent>
        </dc:publisher>
        <dc:title>90s PC</dc:title>
        <dc:date>2010-03-13T12:59:55</dc:date>
        <dc:description>old IBM PC from the 1990s</dc:description>
        <dc:source>https://openclipart.org/detail/31333/90s-pc-by-peileppe</dc:source>
        <dc:creator>
          <cc:Agent>
            <dc:title>Peileppe</dc:title>
          </cc:Agent>
        </dc:creator>
        <dc:subject>
          <rdf:Bag>
            <rdf:li>IBM</rdf:li>
            <rdf:li>PC</rdf:li>
            <rdf:li>computer</rdf:li>
            <rdf:li>crt display</rdf:li>
            <rdf:li>monitor</rdf:li>
          </rdf:Bag>
        </dc:subject>
      </cc:Work>
      <cc:License rdf:about="http://creativecommons.org/licenses/publicdomain/">
        <cc:permits rdf:resource="http://creativecommons.org/ns#Reproduction"/>
        <cc:permits rdf:resource="http://creativecommons.org/ns#Distribution"/>
        <cc:permits rdf:resource="http://creativecommons.org/ns#DerivativeWorks"/>
      </cc:License>
    </rdf:RDF>
  </metadata>
</svg>
